<svg xmlns="http://www.w3.org/2000/svg" xml:space="preserve" width="706.946" height="606.12" viewBox="0 0 187.046 160.369"><path d="m922.51 21.191-1.519-.487-1.3-.835c-.715-.458-1.855-1.427-2.534-2.153l-1.233-1.319-.843-1.779-.843-1.779-.132-14.42-.132-14.42-1.371.073c-1.798.095-4.761.865-7.512 1.952l-2.216.875-1.933 1.262c-1.064.695-2.05 1.263-2.19 1.263h-.257v-.405c0-1.089 3.369-6.551 6.359-10.311 6.602-8.302 14.607-13.352 24.577-15.504l2.534-.547 5.059-.144 5.059-.144 2.614.308c7.585.892 13.948 2.854 21.929 6.764l4.498 2.203 5.556 3.37c3.056 1.854 6.747 4.086 8.202 4.959 10.826 6.498 22.43 10.886 33.493 12.666l3.549.57 5.556.01 5.556.007 2.249-.328c1.237-.18 3.737-.626 5.556-.99l3.308-.661.264-.284.265-.285-.662.152c-.363.083-1.97.293-3.572.465l-2.91.315-4.498-.155-4.498-.156-3.175-.541c-15.141-2.583-24.926-6.96-39.76-17.786-14.293-10.43-24.751-14.755-38.305-15.838l-3.453-.276-3.498.283-3.497.282-2.565.528c-8.52 1.753-15.897 5.507-23.07 11.74-2.581 2.242-2.826 1.893-.925-1.322 10.264-17.361 26.086-27.445 46.281-29.498l3.175-.322 5.16.16 5.16.162 2.725.401c8.618 1.268 16.41 3.887 24.22 8.14 3.589 1.956 5.723 3.309 14.594 9.253l6.879 4.61 2.91 1.596c3.83 2.101 7.067 3.542 10.554 4.696l2.846.943 2.794.539 2.793.54 3.075.164 3.074.166 3.101-.32 3.102-.32 2.721-.615 2.721-.615 2.644-.988c11.59-4.33 21.47-13.235 24.7-22.26l.444-1.242.366-.122.366-.122-.188 3.409c-.706 12.727-4.482 26.7-10.27 38.01l-1.867 3.644-2.014 3.019c-5.015 7.517-11.3 13.677-18.407 18.04l-2.524 1.55.35.077c.573.125 4.625-1.47 7.322-2.884l2.514-1.317 2.262-1.687 2.262-1.687 2.505-2.61 2.505-2.609 1.7-2.571c1.658-2.507 1.948-2.811 2.236-2.345l.14.225-1.058 3.504c-1.726 5.72-3.075 8.48-5.928 12.125l-1.477 1.89-1.78 1.512c-4.655 3.957-10.19 6.691-16.959 8.375l-2.283.568-60.854.063-60.854.063zm50.069-12.42c0-.128-.226-.396-.503-.596-.276-.2-2.627-1.98-5.225-3.957-17.476-13.296-31.046-20.35-39.148-20.35h-.633V6.108l.381.912.381.912.876.534.876.534h21.497l21.498.002zm76.817-45.067c-.143-.188-.4-.973-.57-1.744-1.023-4.646-3.908-7.549-8.73-8.786l-1.141-.292.096-.29.096-.288 1.936-.629 1.936-.628 1.457-.968 1.457-.967.79-1.077c1.063-1.447 1.74-3.059 2.284-5.443l.453-1.984h.727l.333 1.588c1.144 5.457 3.52 8.215 8.312 9.65l1.456.435v.739l-1.027.213c-.565.117-1.812.588-2.771 1.046l-1.744.832-1.34 1.347-1.34 1.348-.581 1.244c-.32.684-.782 1.994-1.027 2.91s-.526 1.761-.624 1.876l-.179.21zM914.264-42.52l-.158-.158V-79.55l.53-1.541c.646-1.876 1.75-3.64 3.094-4.938l1.006-.973 9.525-6.482a8679 8679 0 0 1 19.44-13.183 3913 3913 0 0 0 19.314-13.152 2086 2086 0 0 1 18.096-12.26l8.697-5.807 1.225-.536 1.226-.535 2.28-.138 2.28-.138 1.425.338 1.423.338 12.303 8.25c6.767 4.538 19.685 13.233 28.708 19.322 9.022 6.09 20.63 13.92 25.797 17.4 9.93 6.69 10.922 7.465 12.32 9.617l.879 1.353.544 1.615.544 1.615v19.736l-.97 1.451c-2.2 3.288-7.514 8.98-10.47 11.214l-.99.748-.4-.154-.4-.153v-14.759l-.001-14.759-.507-.832c-.718-1.176-.308-.888-21.32-14.985a28409 28409 0 0 1-43.844-29.46l-4.422-2.982-1.09-.327-1.091-.327-.97.27-.97.269-15.08 10.149a6326 6326 0 0 0-19.845 13.395A7682 7682 0 0 1 943.342-88l-14.287 9.643-.692.752-.691.752-.301.899-.3.9v17.704l-2.556 2.684c-3.05 3.203-6.503 7.441-8.23 10.103-1.222 1.883-1.699 2.365-2.021 2.043M1026.67-45.7c-.63-2.883-1.233-4.998-1.964-6.895l-.848-2.198-1.292-1.93-1.291-1.932-1.811-1.691-1.81-1.692-1.486-.882c-2.116-1.255-4.879-2.328-7.768-3.016l-2.498-.595.073-.36.073-.361 2.411-.61c2.888-.728 4.923-1.526 7.393-2.898l1.838-1.02 2.116-2.14 2.117-2.14.881-1.504c.485-.827 1.293-2.456 1.797-3.621l.916-2.118.657-2.59c.361-1.424.767-2.7.902-2.835l.246-.246.251.636c.138.35.507 1.707.819 3.017l.567 2.381.893 2.069c.49 1.138 1.288 2.743 1.773 3.568l.881 1.499 1.995 1.988 1.995 1.989 2.211 1.241 2.212 1.241 2.54.799c1.398.439 3.047.926 3.666 1.084l1.124.285v.643l-2.768.71-2.768.708-2.193 1.037-2.193 1.037-1.638 1.218-1.637 1.217-1.47 1.783-1.472 1.783-1.182 2.29-1.183 2.289-.793 2.37c-.437 1.303-.927 2.988-1.09 3.745l-.294 1.375h-.74z" style="fill:#a8cbde" transform="translate(-899.063 138.961)"/><path d="M924.425 21.528c-4.695-.764-8.732-4.426-9.924-9l-.395-1.52v-27.217l-1.818.17-1.818.168-2.292.665c-2.805.812-5.327 1.936-7.452 3.32-2.39 1.556-2.527 1.343-.962-1.498 3.718-6.747 8.77-12.55 14.503-16.659l2.352-1.686 2.646-1.309c4.87-2.41 9.425-3.69 15.214-4.278l3.042-.31 3.418.176 3.418.175 3.064.522c10.623 1.81 17.714 4.878 33.228 14.378l6.35 3.89 4.63 2.338 4.63 2.339 4.366 1.72 4.365 1.722 3.308.95c3.99 1.148 7.502 1.88 11.552 2.412l3.027.396h9.471l3.122-.408c5.02-.657 12.876-2.494 12.457-2.913-.06-.06-1.767.15-3.795.464l-3.688.572-5.424.007-5.423.008-3.043-.463c-1.674-.255-4.966-.934-7.317-1.51l-4.275-1.048-4.324-1.478-4.325-1.477-4.233-2.077-4.234-2.076-2.84-1.804c-1.562-.992-5.132-3.47-7.933-5.508-16.31-11.864-26.702-16.15-41.085-16.947l-3.175-.176-3.175.315c-3.927.39-7.152 1.04-10.588 2.133l-2.641.84-2.91 1.38c-4.498 2.134-8.344 4.661-12.237 8.041l-1.654 1.436.002-.363c.002-.443 2.932-5.154 4.98-8.009l1.5-2.09 3.13-3.26 3.13-3.262 2.294-1.825c4.92-3.912 10.076-6.841 15.944-9.056l3.38-1.275 3.259-.795c1.793-.438 4.629-1.006 6.302-1.262l3.043-.466 5.953-.007 5.953-.008 2.778.347c1.528.19 4.445.698 6.483 1.127l3.704.78 3.946 1.334 3.946 1.334 3.525 1.683c4.828 2.306 8.72 4.653 17.555 10.586 7.736 5.196 11.153 7.248 15.485 9.3l2.478 1.173 3.52 1.152 3.52 1.15 2.646.493 2.646.493 5.027-.012 5.027-.011 3.023-.6 3.023-.602 2.798-.926 2.797-.926 3.175-1.557 3.175-1.556 2.43-1.667c6.763-4.642 14.636-13.945 14.636-17.294 0-.193.134-.433.299-.535l.299-.185-.184 2.617c-2.069 29.441-15.534 54.069-35.074 64.15l-1.191.615.41.09.411.09 2.432-.795c3.256-1.064 6.275-2.54 9.315-4.555l2.513-1.666 2.935-2.918 2.936-2.918 1.78-2.58c.98-1.418 1.883-2.579 2.008-2.579h.226l-.665 2.426c-.91 3.324-1.825 5.803-3.02 8.186l-1.009 2.014-1.613 2.14-1.612 2.14-1.615 1.46c-4.684 4.24-10.827 7.274-18.078 8.929l-2.646.603-59.796.04c-32.887.023-60.093-.008-60.457-.067zm47.73-12.474 1.03-.184-2.75-2.144c-19.422-15.142-34.356-23.123-43.267-23.123-.054 0-.098 5.185-.098 11.522V6.648l.4.773.4.772.592.319c.326.175.95.404 1.387.51l.793.191 20.241.012 20.24.012zm77.051-46.882c-.222-1.393-1.253-3.69-2.324-5.182l-.861-1.2-1.528-1.02-1.528-1.02-1.393-.44c-.766-.242-1.567-.497-1.782-.566l-.39-.126.39-.246c.215-.136.628-.248.919-.25s1.273-.357 2.181-.787l1.653-.781 1.324-1.239 1.324-1.238.889-1.777.889-1.777.335-1.779.336-1.778.189.218c.104.12.332.886.506 1.703l.318 1.486.876 1.828.876 1.828 1.244 1.244 1.243 1.243 1.678.8c.922.441 1.898.803 2.168.805s.653.107.85.232l.36.227-.227.131c-.125.072-.703.282-1.285.466s-1.644.63-2.36.988l-1.3.652-1.368 1.293-1.367 1.293-.686 1.26c-.377.693-.892 2.004-1.145 2.913-.535 1.923-.77 2.063-1.004.596m-134.924-4.94-.176-.176v-35.34l.293-1.402.294-1.402.904-1.736.904-1.737 1.25-1.215L919-86.99l10.848-7.385c5.966-4.061 15.312-10.404 20.77-14.094 5.456-3.69 13.85-9.41 18.652-12.709s12.423-8.443 16.934-11.432l8.202-5.434 1.323-.49 1.323-.492 2.249-.002 2.249-.002 1.323.502 1.323.502 12.038 8.078c6.621 4.442 19.36 13.018 28.31 19.057 8.95 6.04 20.499 13.827 25.665 17.307l9.393 6.327 1.404 1.366 1.403 1.366.912 1.852.912 1.852.264 1.425.264 1.425v18.052l-1.497 2.206-1.497 2.206-2.804 2.93c-1.542 1.61-3.61 3.624-4.596 4.474l-1.793 1.545h-.78l-.01-14.486-.01-14.486-.488-1.058c-.692-1.499-.058-1.04-18.815-13.611-9.386-6.291-19.982-13.404-23.548-15.806-3.565-2.403-11.343-7.63-17.284-11.619l-10.802-7.25h-3.093l-8.29 5.577c-62.284 41.91-61.41 41.307-62.032 42.767l-.363.851v18.022l-2.425 2.573c-3.08 3.27-6.555 7.522-8.423 10.307-1.46 2.178-1.615 2.338-1.94 2.012zm112.713-2.91c-.097-.097-.177-.438-.177-.76 0-.32-.362-1.8-.804-3.289l-.804-2.706-1.018-2.024c-1.898-3.775-4.054-6.21-7.432-8.395l-1.809-1.17-2.057-.824a39 39 0 0 0-4.26-1.368l-2.205-.544.207-.183c.113-.1 1.03-.385 2.039-.631 1.007-.247 2.776-.812 3.93-1.257l2.096-.809 2.331-1.559 2.331-1.559 1.188-1.322c1.74-1.935 3.078-4.06 4.215-6.698l1.007-2.335.629-2.428.629-2.428.224.055.225.054.191 1.11c.52 3.008 2.41 7.69 4.123 10.214l1.067 1.571 2.001 1.87 2.002 1.87 2.32 1.192 2.319 1.193 2.778.848 3.167.967.39.119-.39.246c-.214.136-.627.249-.918.252s-1.853.459-3.47 1.013l-2.94 1.007-1.982 1.235-1.982 1.235-1.86 1.958-1.86 1.96-1.09 1.833c-1.327 2.233-2.728 5.65-3.454 8.42-.583 2.224-.63 2.334-.897 2.067" style="fill:#a3b4c7" transform="translate(-899.063 138.961)"/><path d="M923.13 21.022a15 15 0 0 1-2.712-1.085l-1.284-.7-1.423-1.49-1.422-1.492-.603-1.179a15.3 15.3 0 0 1-.956-2.501l-.353-1.323-.003-13.863-.003-13.862-1.818.169-1.818.169-2.32.672c-3.032.879-5.504 1.943-7.579 3.265l-1.679 1.07-.089-.257c-.144-.414 2.738-5.202 4.806-7.985 5.7-7.668 11.76-12.376 19.787-15.373l2.542-.95 3.278-.675 3.278-.674 3.837-.167 3.836-.166 3.175.325c12.124 1.241 19.664 4.321 38.232 15.619l6.218 3.783 4.234 2.087c9.368 4.618 17.843 7.36 26.987 8.73l2.381.356 6.086-.005 6.085-.004 3.043-.466c5.055-.773 14.402-3.335 13.922-3.816-.071-.07-1.298.123-2.726.43-1.429.308-3.959.737-5.623.954l-3.026.393h-8.87l-3.123-.409c-10.497-1.374-22.804-5.648-31.168-10.824-2.805-1.736-4.37-2.822-12.94-8.981-11.531-8.287-22.34-12.718-33.993-13.938l-3.013-.315-4.396.142-4.395.142-2.879.571c-1.583.314-4.142.983-5.688 1.485l-2.81.914-3.44 1.693-3.44 1.694-2.38 1.593c-1.31.877-3.323 2.377-4.473 3.333-2.6 2.162-2.715 2.059-.95-.844 9.071-14.918 23.692-24.678 41.141-27.464l2.646-.422 3.836-.212 3.837-.211 3.969.231 3.968.231 3.282.534c12.31 2 19.977 5.459 35.888 16.188 7.828 5.278 10.676 6.996 15.264 9.207l3.245 1.564 2.828.942c1.555.518 3.984 1.183 5.398 1.478l2.57.537 3.202.227 3.202.227 3.042-.23c3.92-.296 6.83-.859 10.45-2.02l2.91-.933 3.035-1.435 3.035-1.436 2.965-1.975 2.965-1.975 2.944-2.82 2.945-2.822 1.665-2.219 1.664-2.218 1.296-2.435 1.295-2.435.095.655c.531 3.68-2.264 18.06-5.243 26.972-5.714 17.095-15.951 30.09-29.706 37.707-.983.544-1.786 1.087-1.786 1.208v.218l1.521-.355c3.87-.903 8.295-2.922 12.085-5.514l2.362-1.615 2.244-2.121 2.243-2.122 1.745-2.3a172 172 0 0 0 2.233-2.995c1.173-1.666.156 2.535-1.681 6.945l-1.019 2.444-1.507 2.319-1.507 2.318-2.017 1.986c-2.55 2.51-4.973 4.233-8.406 5.977l-2.705 1.375-2.522.84a67 67 0 0 1-4.978 1.41l-2.457.57-60.193.057-60.192.058zm50.243-12.007c0-.906-19.119-14.602-25.492-18.262-7.174-4.12-16.943-7.5-20.744-7.178l-.331.028V6.409l.442.931.442.932.814.496.815.497 22.027.001 22.027.001zm76.135-46.749c-.072-.125-.281-.703-.466-1.285-.184-.582-.627-1.64-.983-2.35l-.648-1.292-1.204-1.288-1.204-1.287-1.852-.926c-1.018-.51-2.074-.927-2.345-.927h-.494v-.488l.992-.321c.546-.177 1.569-.61 2.273-.963l1.28-.642 1.13-1.041 1.13-1.042.812-1.522c.446-.838 1.018-2.267 1.27-3.176.56-2.008.72-2.049 1.128-.284.173.752.685 2.118 1.136 3.035l.82 1.667 1.376 1.3 1.376 1.302 1.04.523c.57.287 1.485.667 2.03.843 1.312.424 1.256.592-.397 1.178-1.86.66-3.812 1.944-5.051 3.32l-1.016 1.13-.77 1.625c-.423.894-.77 1.805-.773 2.023 0 .218-.107.558-.232.756l-.227.359zM914.37-61.066v-17.99l.502-1.61.501-1.611.836-1.304c1.487-2.316 4.567-4.516 36.526-26.09 3.42-2.308 10.147-6.892 14.949-10.186s12.72-8.65 17.595-11.903l8.863-5.914 1.323-.507 1.323-.508 1.985-.136 1.984-.136 1.852.634 1.852.635 19.976 13.464a39814 39814 0 0 1 33.734 22.763c7.568 5.115 15.564 10.513 17.77 11.997l4.011 2.698 1.319 1.442 1.318 1.443.582 1.202c.32.66.748 1.826.95 2.589l.37 1.387v18.786l-.561.926c-.309.51-1.306 1.88-2.215 3.047l-1.652 2.122-3.626 3.5-3.625 3.502h-.754v-28.178l-.283-1.018-.282-1.017-.84-.893-.841-.893-19.05-12.774a33985 33985 0 0 1-33.013-22.167c-7.68-5.166-14.704-9.848-15.61-10.405l-1.648-1.012-1.46.098-1.46.1-13.169 8.85a7572 7572 0 0 0-21.426 14.454 7064 7064 0 0 1-20.164 13.605c-6.549 4.402-12.56 8.494-13.36 9.094L928-77.89l-.593 1.047-.593 1.047-.004 9.1-.004 9.102-2.186 2.276a87.6 87.6 0 0 0-7.857 9.42c-1.049 1.455-2.016 2.685-2.15 2.734l-.242.088zm112.615 14.478a99 99 0 0 1-.574-2.22c-.255-1.02-.812-2.746-1.238-3.837l-.774-1.984-1.172-1.889-1.171-1.888-1.523-1.58-1.523-1.582-1.99-1.298-1.99-1.3-2.118-.836c-1.165-.46-2.926-1.04-3.912-1.288l-1.794-.45.215-.202c.118-.11 1.155-.456 2.304-.767 8.439-2.286 13.781-7.669 16.428-16.554.39-1.31.805-2.62.922-2.91l.213-.53.187.794c2.586 10.963 7.957 16.85 17.666 19.366 2.08.54 2.202.749.661 1.14-.618.158-2.067.606-3.218.998l-2.094.71-1.934 1.133-1.933 1.132-1.727 1.615-1.727 1.615-1.201 1.807c-1.525 2.294-2.75 4.962-3.818 8.317-.909 2.856-.998 3.046-1.165 2.488" style="fill:#1199cd" transform="translate(-899.063 138.961)"/><path d="M923.13 21.022a15 15 0 0 1-2.712-1.085l-1.284-.7-1.423-1.49-1.422-1.492-.603-1.179a15.3 15.3 0 0 1-.956-2.501l-.353-1.323-.003-13.863-.003-13.862-1.818.169-1.818.169-2.32.672c-3.032.879-5.504 1.943-7.579 3.265l-1.679 1.07-.089-.257c-.144-.414 2.738-5.202 4.806-7.985 5.7-7.668 11.76-12.376 19.787-15.373l2.542-.95 3.278-.675 3.278-.674 3.837-.167 3.836-.166 3.175.325c12.124 1.241 19.664 4.321 38.232 15.619l6.218 3.783 4.234 2.087c9.104 4.488 17.26 7.179 25.975 8.568l2.6.414 4.772.154 4.772.154 3.165-.324c6.146-.628 13.297-2.277 16.602-3.828.76-.357 1.737-.727 2.174-.824 1.032-.23 3.184-1.177 7.288-3.21l3.32-1.643 2.944-1.968c3.878-2.59 6.503-4.745 9.763-8.013l2.677-2.684 1.82-2.38c1.002-1.31 1.956-2.605 2.121-2.878l.3-.498.19.181.19.182-.982 3.39c-1.429 4.932-3.076 9.174-5.427 13.974l-2.074 4.233-2.09 3.175c-5.823 8.851-12.678 15.318-21.297 20.091-.982.544-1.786 1.087-1.786 1.208v.218l1.522-.355c3.869-.903 8.294-2.922 12.085-5.514l2.362-1.615 2.243-2.121 2.244-2.122 1.744-2.3a172 172 0 0 0 2.234-2.995c1.173-1.666.156 2.535-1.682 6.945l-1.018 2.444-1.507 2.319-1.507 2.318-2.018 1.986c-2.55 2.51-4.972 4.233-8.406 5.977l-2.705 1.375-2.522.84a67 67 0 0 1-4.978 1.41l-2.456.57-60.193.057-60.193.058zm50.243-12.007c0-.906-19.119-14.602-25.492-18.262-7.174-4.12-16.943-7.5-20.744-7.178l-.331.028V6.409l.442.931.442.932.814.496.815.497 22.027.001 22.027.001zM914.37-61.066v-17.99l.502-1.61.501-1.611.836-1.304c1.487-2.316 4.567-4.516 36.526-26.09 3.42-2.308 10.147-6.892 14.949-10.186s12.72-8.65 17.595-11.903l8.863-5.914 1.323-.507 1.323-.508 1.985-.136 1.984-.136 1.852.634 1.852.635 19.976 13.464a39814 39814 0 0 1 33.734 22.763c7.568 5.115 15.564 10.513 17.77 11.997l4.011 2.698 1.319 1.442 1.318 1.443.582 1.202c.32.66.748 1.826.95 2.589l.37 1.387v18.786l-.561.926c-.309.51-1.306 1.88-2.215 3.047l-1.652 2.122-3.626 3.5-3.625 3.502h-.754v-28.178l-.283-1.018-.282-1.017-.84-.893-.841-.893-19.05-12.774a33985 33985 0 0 1-33.013-22.167c-7.68-5.166-14.704-9.848-15.61-10.405l-1.648-1.012-1.46.098-1.46.1-13.169 8.85a7572 7572 0 0 0-21.426 14.454 7064 7064 0 0 1-20.164 13.605c-6.549 4.402-12.56 8.494-13.36 9.094L928-77.89l-.593 1.047-.593 1.047-.004 9.1-.004 9.102-2.186 2.276a87.6 87.6 0 0 0-7.857 9.42c-1.049 1.455-2.016 2.685-2.15 2.734l-.242.088z" style="fill:#547093" transform="translate(-899.063 138.961)"/><path d="M923.436 20.768c-3.922-1.063-6.716-3.545-8.195-7.279l-.467-1.179-.136-14.42-.135-14.42-1.985.05-1.984.05-2.38.695c-2.482.726-6.206 2.355-7.52 3.291-1.118.796-1.165.694-.385-.844 1.915-3.782 5.74-8.73 9.686-12.53l2.757-2.656 2.464-1.648c4.564-3.053 9.39-5.017 15.154-6.168l2.978-.595 5.292-.003 5.291-.004 2.117.343c11.444 1.856 18.45 4.805 34.026 14.325l6.985 4.269 4.1 2.075c9.677 4.895 17.998 7.69 27.385 9.194l2.91.467h6.218l6.218.001 3.175-.486c5.77-.883 14.32-3.309 16.204-4.598.401-.274 1.503-.833 2.449-1.243 10.686-4.63 22.846-14.422 26.465-21.314l.346-.66.095.284c.347 1.04-3.532 11.825-6.274 17.441l-2.067 4.233-2.116 3.175c-5.992 8.991-12.986 15.474-21.74 20.152l-2.382 1.273v.668h.351c.193 0 1.619-.356 3.168-.79l2.816-.792 2.61-1.148 2.61-1.15 2.359-1.532c1.297-.843 3.333-2.358 4.525-3.368l2.168-1.834 1.82-2.168c1-1.192 2.108-2.582 2.46-3.09l.64-.923.078.408.08.407-.957 2.747c-1.663 4.778-3.437 7.79-6.452 10.957l-1.738 1.824-2.026 1.514-2.026 1.513-2.902 1.485-2.902 1.484-2.39.801a64 64 0 0 1-4.995 1.395l-2.603.594-59.928.052-59.928.051zM973.902 9.2v-.333l-2.183-1.74c-4.441-3.54-11.865-8.933-17.264-12.54l-5.556-3.71-3.44-1.763c-5.903-3.025-10.86-4.779-15.95-5.642l-2.457-.417-.256.158-.255.157V6.648l.388.749c.213.412.758 1.06 1.21 1.442l.824.693h44.939zm-59.264-70.377.003-17.529.354-1.322a13.25 13.25 0 0 1 2.438-4.793l.882-1.088 10.794-7.367a8301 8301 0 0 1 22.17-15.068 4129 4129 0 0 0 18.125-12.335c3.71-2.548 10.686-7.271 15.501-10.496l8.755-5.861 1.564-.722 1.564-.722 2.514-.01 2.513-.008 1.455.681 1.456.682 10.381 6.99 17.066 11.488c3.676 2.475 13.113 8.843 20.971 14.152 7.858 5.31 17.204 11.62 20.768 14.022l6.48 4.37 1.232 1.633 1.233 1.634.62 1.541.619 1.541.083 9.89.083 9.89-.943 1.42c-1.977 2.978-5.156 6.503-8.612 9.553l-2.25 1.984-.131-14.516-.133-14.516-.503-1.013-.503-1.013-2.275-1.597c-1.251-.878-10.49-7.111-20.531-13.852-10.041-6.74-24.828-16.669-32.86-22.063l-14.604-9.807h-3.211L985.34-117.1a8328 8328 0 0 0-21.361 14.4 12236 12236 0 0 1-22.036 14.874l-13.039 8.78-.823.823c-.452.452-.984 1.21-1.182 1.682l-.359.86v18.041l-2.223 2.299c-2.923 3.022-5.563 6.174-7.721 9.219-.964 1.36-1.8 2.472-1.857 2.472-.058 0-.104-7.888-.102-17.529z" style="fill:#066a9a" transform="translate(-899.063 138.961)"/><path d="M923.396 20.758c-.784-.212-2.124-.758-2.977-1.213l-1.552-.827-1.017-1.104c-.56-.607-1.328-1.632-1.706-2.278l-.688-1.174-.41-1.577-.411-1.577V-16.74l-2.05.16-2.051.159-2.38.69c-2.507.729-6.204 2.35-7.56 3.316-1.24.883-1.213.426.057-.951 2.824-3.064 7.243-6.04 11.966-8.057l2.589-1.106 2.956-.745c1.625-.41 4.125-.891 5.554-1.07l2.6-.326 4.677.149 4.676.148 2.547.547c1.4.3 3.96 1.027 5.688 1.613l3.142 1.066 4.234 2.1 4.233 2.098 3.463 2.214c1.904 1.217 6.615 4.488 10.469 7.268 20.335 14.67 33.142 21.127 46.924 23.653l3.173.582 5.557-.004 5.556-.004 3.307-.576c3.998-.697 8.024-1.684 11.068-2.713 1.243-.42 2.575-.764 2.959-.764s1.965-.356 3.515-.79l2.816-.792 2.61-1.148 2.61-1.15 2.359-1.532c1.297-.843 3.333-2.358 4.525-3.367l2.167-1.835 1.82-2.168c1.001-1.192 2.108-2.582 2.46-3.09l.64-.923.08.408.078.407-.956 2.747c-1.663 4.778-3.437 7.79-6.453 10.957l-1.738 1.824-2.026 1.514-2.026 1.513-2.901 1.485-2.902 1.484-2.39.801a64 64 0 0 1-4.995 1.395l-2.603.594-59.928.052-59.929.051zM973.902 9.2v-.333l-2.183-1.74c-4.441-3.54-11.865-8.933-17.264-12.54l-5.556-3.71-3.44-1.763c-5.903-3.025-10.86-4.779-15.95-5.642l-2.457-.417-.256.158-.255.157V6.648l.388.749c.213.412.758 1.06 1.21 1.442l.824.693h44.939zm-59.264-70.377.003-17.529.354-1.322a13.25 13.25 0 0 1 2.438-4.793l.882-1.088 10.794-7.367a8301 8301 0 0 1 22.17-15.068 4129 4129 0 0 0 18.125-12.335c3.71-2.548 10.686-7.271 15.501-10.496l8.755-5.861 1.564-.722 1.564-.722 2.514-.01 2.513-.008 1.455.681 1.456.682 10.381 6.99 17.066 11.488c3.676 2.475 13.113 8.843 20.971 14.152 7.858 5.31 17.204 11.62 20.768 14.022l6.48 4.37 1.232 1.633 1.233 1.634.62 1.541.619 1.541.083 9.89.083 9.89-.943 1.42c-1.977 2.978-5.156 6.503-8.612 9.553l-2.25 1.984-.131-14.516-.133-14.516-.503-1.013-.503-1.013-2.275-1.597c-1.251-.878-10.49-7.111-20.531-13.852-10.041-6.74-24.828-16.669-32.86-22.063l-14.604-9.807h-3.211L985.34-117.1a8328 8328 0 0 0-21.361 14.4 12236 12236 0 0 1-22.036 14.874l-13.039 8.78-.823.823c-.452.452-.984 1.21-1.182 1.682l-.359.86v18.041l-2.223 2.299c-2.923 3.022-5.563 6.174-7.721 9.219-.964 1.36-1.8 2.472-1.857 2.472-.058 0-.104-7.888-.102-17.529z" style="fill:#014176" transform="translate(-899.063 138.961)"/><path d="M922.97 20.538c-.583-.184-1.586-.606-2.23-.937l-1.171-.602-1.37-1.297-1.371-1.296-.898-1.915-.898-1.916-.012-14.685-.012-14.684.148 14.42.147 14.42.47 1.19c.258.655.833 1.786 1.277 2.514l.807 1.323 1.185.882a21 21 0 0 0 2.424 1.515l1.239.634 1.852.277 1.852.278 59.134-.085 59.135-.085 2.91-.689c7.216-1.708 11.929-4.014 16.827-8.232l2.091-1.8 1.124-1.635c2.142-3.114 3.532-5.722 4.46-8.368.656-1.87.504-1.94-.572-.264l-.877 1.367-3.112 2.678c-5.993 5.158-9.365 7.03-16.048 8.906-1.537.431-3.041.775-3.343.764l-.55-.02 2.646-.737c1.455-.405 3.914-1.234 5.465-1.842l2.819-1.105 2.14-1.286a60 60 0 0 0 3.96-2.637l1.822-1.35 2.663-2.765c1.466-1.521 3.088-3.395 3.605-4.163.518-.77.941-1.317.941-1.218 0 .668-1.84 5.556-2.917 7.75l-1.3 2.646-1.467 1.852-1.469 1.852-2.046 1.798-2.045 1.798-2.178 1.326a54 54 0 0 1-4.48 2.39l-2.301 1.062-3.08.887-3.08.886-2.55.285-2.551.284-59.079-.018-59.078-.017zm100.624-2.985c.19-.076.419-.067.507.021l.16.16-.507-.02-.508-.022zm-3.704-.264c.19-.077.419-.067.507.02l.16.16-.508-.02-.507-.021zm-1.803-.216c0-.073.06-.133.132-.133a.133.133 0 0 1 0 .265.133.133 0 0 1-.132-.132m-88.706-7.033c-.548-.13-1.299-.435-1.669-.677l-.672-.441-.554-1.084-.554-1.084-.055-11.7-.055-11.7.487-.442.488-.442 2.055.33c7.33 1.174 15.44 4.506 22.956 9.43 3.032 1.986 3.035 1.988 4.082 2.618.484.29 1.193.777 1.575 1.081s1.885 1.37 3.34 2.369 3.658 2.637 4.895 3.64c1.236 1.002 2.487 1.92 2.778 2.039s.967.614 1.504 1.1a56 56 0 0 0 2.455 2.044c.814.638 1.43 1.21 1.37 1.272-.062.061-1.405-.908-2.985-2.155-2.492-1.964-11.116-8.299-13.852-10.174-9.596-6.576-16.06-9.867-23.228-11.825-2.54-.694-6.918-1.445-7.267-1.247l-.198.113v23.14l.595 1.165.595 1.165.747.545.747.544 22.536.133 22.537.132-.265.163-.264.163-21.564.01-21.563.011zm-29.563-22.336a.133.133 0 0 1 .265 0c0 .073-.06.132-.132.132a.133.133 0 0 1-.133-.132m1.323-.941c.848-.706 2.735-1.574 5.709-2.623l2.361-.834 2.505-.376 2.505-.377.26.26.26.26h-.871c-2.591 0-7.708 1.477-11.483 3.314l-1.907.927zM914.9-62.104l.132-18.19.82-1.732.822-1.733.89-1.013c1.125-1.282 2.02-1.934 10.473-7.637 3.806-2.567 8.211-5.557 9.79-6.645s7.99-5.445 14.247-9.684c6.257-4.24 13.163-8.942 15.345-10.45s9.089-6.184 15.346-10.392l11.377-7.65 1.532-.57 1.53-.57 2.174.006 2.173.006 1.465.603 1.466.603 10.573 7.11c14.486 9.74 21.448 14.434 24.728 16.673 1.528 1.043 6.648 4.497 11.377 7.674s9.85 6.632 11.377 7.675c1.528 1.042 5.933 4.009 9.79 6.591l7.011 4.695 1.367 1.422 1.367 1.422.882 1.792.882 1.79.078 10.261.078 10.26-.851 1.256c-2.078 3.062-9.77 11.177-10.596 11.177h-.218v-28.592l-.365-.851-.365-.852-.892-.825c-.797-.737-10.64-7.455-18.177-12.406-2.78-1.826-19.797-13.265-26.767-17.993a5139 5139 0 0 0-14.023-9.436l-10.451-7.014-.993-.186-.992-.186-.988.186-.989.185-6.75 4.54c-3.713 2.498-11.156 7.501-16.54 11.119a4055 4055 0 0 0-18.39 12.438 2950 2950 0 0 1-17.594 11.878l-8.996 6.017-1.1 1.132-1.101 1.132-.287 1.033-.287 1.032v8.698l-.002 8.698-2.387 2.497c-3.115 3.258-6.023 6.785-7.596 9.213-.694 1.071-1.321 1.956-1.394 1.965s-.073-8.168 0-18.172zm5.452 10.294c1.035-1.26 2.717-3.126 3.74-4.147l1.86-1.856-.014-9.125-.013-9.124.453-.954c.771-1.626-.072-1.01 18.287-13.338 5.676-3.81 11.212-7.546 12.303-8.301a883 883 0 0 1 5.424-3.705c1.892-1.282 5.081-3.45 7.087-4.817a286 286 0 0 1 6.358-4.206c1.491-.945 3.6-2.351 4.687-3.124a205 205 0 0 1 4.358-2.986c1.31-.87 4.584-3.055 7.276-4.854l4.895-3.272 1.124-.332 1.125-.332 1.124.334 1.125.333 3.017 2.024c1.66 1.112 3.526 2.32 4.147 2.684s1.407.911 1.745 1.216c.464.417 8.717 6 12.87 8.706.224.146 1.343.89 2.487 1.654s2.157 1.389 2.251 1.389.417.223.718.496c.3.272 1.736 1.282 3.192 2.243 1.455.962 2.943 1.96 3.306 2.217.364.257 3.52 2.383 7.012 4.723 3.493 2.34 10.399 6.972 15.346 10.292s9.591 6.43 10.32 6.91c.727.48 1.78 1.206 2.34 1.614l1.017.741.702 1.191.703 1.19.132 14.156.132 14.155 3.218-3.175 3.217-3.175 1.775-2.249c.976-1.237 1.948-2.654 2.16-3.149l.386-.9-.093-9.418-.092-9.42-.787-1.958-.788-1.958-1.182-1.319-1.181-1.32-2.92-1.94c-1.605-1.068-4.17-2.77-5.697-3.784-2.857-1.896-3.42-2.28-5.689-3.878a232 232 0 0 0-4.233-2.854 624 624 0 0 1-6.35-4.268 2141 2141 0 0 0-8.279-5.606c-2.661-1.793-4.983-3.382-5.159-3.532-.339-.287-5.515-3.725-6.962-4.624-1.081-.672-13.32-8.947-16.062-10.861-1.136-.793-2.138-1.442-2.227-1.442s-.978-.595-1.975-1.323-1.884-1.323-1.97-1.323-.71-.402-1.384-.894c-5.312-3.874-7.583-5.126-9.909-5.463l-1.539-.222-1.602.258-1.601.258-1.045.533c-.575.293-3.686 2.286-6.914 4.429-3.227 2.142-6.463 4.273-7.19 4.734-1.703 1.08-7.379 4.973-8.89 6.098-1.427 1.063-5.517 3.855-8.126 5.55a82 82 0 0 0-3.618 2.512c-.927.692-1.737 1.257-1.8 1.257-.064 0-.996.6-2.07 1.333a1970 1970 0 0 1-10.534 7.134c-4.722 3.125-11.29 7.553-11.397 7.683-.217.265-3.396 2.37-3.58 2.37-.092 0-.664.407-1.27.902-1.016.83-4.092 2.966-8.38 5.818-.945.63-2.258 1.682-2.918 2.34l-1.198 1.197-.71 1.452c-.392.798-.837 2.011-.99 2.696l-.28 1.245.017 16.22.017 16.22.156.155.155.156 1.487-2c.818-1.1 2.333-3.03 3.367-4.29" style="fill:#023d73" transform="translate(-899.063 138.961)"/></svg>