<svg width="0" height="0" class="absolute" xmlns="http://www.w3.org/2000/svg">
    <defs>
        <clipPath id="bath-clip-path" clipPathUnits="objectBoundingBox"><path transform="scale(0.018115) translate(-0.26, -12.2)" d="M10.5 25.603h4v2h-4z M54.5 28.6h-47v-3.36c.57-.38 2.12-.85 2.73-.85.2 0 .38.1.49.21h3.08c-.1-1.76-1.69-3.21-3.56-3.21-.68 0-5.73.74-5.73 3.48v3.73h-3c-.83 0-1.5.67-1.5 1.5s.67 1.5 1.5 1.5h53c.83 0 1.5-.67 1.5-1.5s-.67-1.5-1.5-1.5z M.26 33.42c0 0 1.98.71 3.13 4.64.75 2.58-.86 7.75 6.09 10.98 0 .02-.01.06-.01.08l-.16 3.32c-.03.55.33.76.8.46l2.79-1.78c.25-.16.56-.39.84-.64 3.17.77 7.35 1.28 12.88 1.39l-.08.02c.4 0 .76 0 1.15-.01.38 0 .75.01 1.15.01l-.11-.02c5.67-.11 9.94-.64 13.16-1.43.29.27.63.52.89.69l2.8 1.78c.46.3.82.09.8-.46l-.16-3.32a3.5 3.5 0 000-.17c6.84-3.24 5.42-8.33 6.17-10.89 1.15-3.93 2.88-4.64 2.88-4.64L27.5 33.24.26 33.42z M19.3 18.03c.26.18.56.3.89.3.85 0 1.56-.74 1.76-1.72h-1.4c-.18.61-.67 1.12-1.25 1.42z M20.56 15.6h1.4c-.17-1.02-.9-1.78-1.77-1.78-.33 0-.63.11-.89.3.58.32 1.09.85 1.26 1.48z M19.93 19.82c2.07 0 3.75-1.68 3.75-3.75s-1.68-3.75-3.75-3.75-3.75 1.68-3.75 3.75 1.68 3.75 3.75 3.75zm-1.58-5.99c.45-.32.99-.51 1.58-.51 1.36 0 2.48.99 2.7 2.28.03.15.05.31.05.47 0 .18-.02.36-.05.53-.25 1.26-1.36 2.22-2.7 2.22-.59 0-1.13-.19-1.58-.51-.7-.5-1.17-1.31-1.17-2.24s.46-1.92 1.17-2.24z M33.47 21.6h-1.45c-.16.83-.87 1.51-1.64 1.78.24.08.5.14.78.14.87 0 1.84-.84 2.01-1.92z M31.92 20.6h1.46c-.3-.91-1.18-1.58-2.23-1.58-.27 0-.53.05-.78.14.7.29 1.32.83 1.55 1.44z M31.37 25.02h.00c2.07 0 3.75-1.68 3.75-3.75s-1.68-3.75-3.75-3.75-3.75 1.68-3.75 3.75s1.68 3.75 3.75 3.75z"/></clipPath>
        <clipPath id="oven-clip-path" clipPathUnits="objectBoundingBox"><path d="M0.05,0 H0.95 C0.978,0,1,0.022,1,0.05 V0.95 C1,0.978,0.978,1,0.95,1 H0.05 C0.022,1,0,0.978,0,0.95 V0.05 C0,0.022,0.022,0,0.05,0 Z M0.05,0.05 H0.95 V0.15 H0.05 V0.05 Z M0.15,0.25 V0.85 H0.85 V0.25 H0.15 Z M0.3,0.07 H0.7 V0.13 H0.3 V0.07 Z"/></clipPath>
        <clipPath id="door-clip-path" clipPathUnits="objectBoundingBox"><path d="M.2,1 V.2 C.2,0 .8,0 .8,.2 V1 Z"/></clipPath>
        <clipPath id="sink-clip-path" clipPathUnits="objectBoundingBox"><path transform="scale(0.018115) translate(-2.6, 0)" d="M34.602 46.325c0 3.032-2.468 5.5-5.5 5.5h-3a5.506 5.506 0 0 1-5.5-5.5v-3.024c-1.397 1.262-2.25 2.907-2.25 4.715 0 3.97 4.09 7.188 9.135 7.188s9.135-3.219 9.135-7.188c0-1.707-.758-3.271-2.02-4.504v2.813zM52.014 21.758c-2.684-5.773-3.965-8.676-6.403-14.513l-.104.007-.154-.365-3.957-.007-10.794-.019v.464c0 .827-.673 1.5-1.5 1.5h-3c-.827 0-1.5-.673-1.5-1.5v-.474l-10.444-.019-4.306-.007-.177.425-.08-.005c-2.44 5.836-3.721 8.74-6.404 14.513a259.559 259.559 0 0 0 48.823 0zM13.093 9.825h29.352a313.36 313.36 0 0 0 2.62 6.947c-11.74.722-22.851.722-34.592 0a318.47 318.47 0 0 0 2.62-6.947z M2.602 22.825v3.083a3.917 3.917 0 0 0 3.917 3.917H21.652c-.018.166-.05.329-.05.5v16c0 2.481 2.019 4.5 4.5 4.5h3c2.48 0 4.5-2.019 4.5-4.5v-16c0-.171-.032-.334-.051-.5h15.132a3.918 3.918 0 0 0 3.918-3.917v-3.083c-12.582 1.583-37.749 1.583-49.999 0zM27.696 15.075a2.468 1 0 100-2 2.468 1 0 000 2zM22.946 4.512c.569 0 1.07-.272 1.396-.687h1.26v3.5a.5.5 0 0 0 .5.5h3a.5.5 0 0 0 .5-.5v-3.5h.948l.052.063c.327.378.805.624 1.344.624a1.78 1.78 0 1 0 0-3.562c-.539 0-1.017.245-1.344.624a1.89 1.89 0 0 0-.182.251h-.818V.495c-.216-.11-.807-.303-2-.495-1.194.191-1.784.385-2 .495v1.33h-1.13A1.775 1.775 0 0 0 22.946.95a1.781 1.781 0 0 0 0 3.562z"/></clipPath>
    </defs>
</svg>
